<svg xmlns="http://www.w3.org/2000/svg" xmlns:xlink="http://www.w3.org/1999/xlink" width="500" zoomAndPan="magnify" viewBox="0 0 375 374.999991" height="500" preserveAspectRatio="xMidYMid meet" version="1.0"><defs><g/><clipPath id="1895851fed"><path d="M 28 204 L 158 204 L 158 281 L 28 281 Z M 28 204 " clip-rule="nonzero"/></clipPath><clipPath id="63e117c3c2"><path d="M 34.992188 204.636719 L 158.027344 267.316406 L 151.0625 280.992188 L 28.027344 218.3125 Z M 34.992188 204.636719 " clip-rule="nonzero"/></clipPath><clipPath id="9613c5a5c5"><path d="M 34.992188 204.636719 L 157.980469 267.289062 L 151.015625 280.96875 L 28.027344 218.3125 Z M 34.992188 204.636719 " clip-rule="nonzero"/></clipPath><clipPath id="1b01034740"><path d="M 28 267 L 164 267 L 164 330 L 28 330 Z M 28 267 " clip-rule="nonzero"/></clipPath><clipPath id="4823f65189"><path d="M 28.03125 314.589844 L 157.882812 267.640625 L 163.101562 282.074219 L 33.25 329.023438 Z M 28.03125 314.589844 " clip-rule="nonzero"/></clipPath><clipPath id="171bb7c814"><path d="M 28.03125 314.589844 L 157.832031 267.660156 L 163.050781 282.09375 L 33.25 329.023438 Z M 28.03125 314.589844 " clip-rule="nonzero"/></clipPath><clipPath id="ea64f12e0d"><path d="M 208 94 L 339 94 L 339 171 L 208 171 Z M 208 94 " clip-rule="nonzero"/></clipPath><clipPath id="55a4505dc8"><path d="M 331.550781 170.671875 L 208.515625 107.992188 L 215.484375 94.316406 L 338.519531 156.996094 Z M 331.550781 170.671875 " clip-rule="nonzero"/></clipPath><clipPath id="87a1dd72d4"><path d="M 331.550781 170.671875 L 208.5625 108.019531 L 215.53125 94.34375 L 338.519531 156.996094 Z M 331.550781 170.671875 " clip-rule="nonzero"/></clipPath><clipPath id="a4ac78daf2"><path d="M 203 46 L 339 46 L 339 108 L 203 108 Z M 203 46 " clip-rule="nonzero"/></clipPath><clipPath id="74cf0e94f3"><path d="M 338.515625 60.71875 L 208.660156 107.667969 L 203.441406 93.234375 L 333.296875 46.285156 Z M 338.515625 60.71875 " clip-rule="nonzero"/></clipPath><clipPath id="3d0a84cbdc"><path d="M 338.515625 60.71875 L 208.710938 107.648438 L 203.492188 93.214844 L 333.296875 46.285156 Z M 338.515625 60.71875 " clip-rule="nonzero"/></clipPath><clipPath id="7bd5d87b00"><path d="M 29 306 L 165 306 L 165 368 L 29 368 Z M 29 306 " clip-rule="nonzero"/></clipPath><clipPath id="1282b0df1b"><path d="M 29.378906 353.273438 L 159.234375 306.324219 L 164.453125 320.757812 L 34.597656 367.707031 Z M 29.378906 353.273438 " clip-rule="nonzero"/></clipPath><clipPath id="8d2f9f0e8c"><path d="M 29.378906 353.273438 L 159.183594 306.339844 L 164.402344 320.773438 L 34.597656 367.707031 Z M 29.378906 353.273438 " clip-rule="nonzero"/></clipPath><clipPath id="e461e69ec6"><path d="M 201 7 L 337 7 L 337 69 L 201 69 Z M 201 7 " clip-rule="nonzero"/></clipPath><clipPath id="ac388fa126"><path d="M 336.097656 21.925781 L 206.246094 68.875 L 201.023438 54.441406 L 330.878906 7.492188 Z M 336.097656 21.925781 " clip-rule="nonzero"/></clipPath><clipPath id="09165958d2"><path d="M 336.097656 21.925781 L 206.292969 68.859375 L 201.074219 54.425781 L 330.878906 7.492188 Z M 336.097656 21.925781 " clip-rule="nonzero"/></clipPath></defs><g clip-path="url(#1895851fed)"><g clip-path="url(#63e117c3c2)"><g clip-path="url(#9613c5a5c5)"><path fill="#000000" d="M 34.992188 204.636719 L 157.976562 267.289062 L 151.007812 280.964844 L 28.027344 218.3125 Z M 34.992188 204.636719 " fill-opacity="1" fill-rule="nonzero"/></g></g></g><g fill="#000000" fill-opacity="1"><g transform="translate(33.88371, 179.154853)"><g><path d="M 5.953125 0 L 22.28125 0 L 32.484375 -28.984375 L 91.109375 -28.984375 L 101.3125 0 L 117.359375 0 L 67.59375 -133.40625 L 56.078125 -133.40625 Z M 37.484375 -42.671875 L 61.9375 -111.40625 L 86.015625 -42.671875 Z M 37.484375 -42.671875 "/></g></g></g><g fill="#000000" fill-opacity="1"><g transform="translate(203.714787, 324.47394)"><g><path d="M 20.015625 0 L 35.03125 0 L 35.03125 -60.515625 L 102.34375 -60.515625 L 102.34375 0 L 117.359375 0 L 117.359375 -133.40625 L 102.34375 -133.40625 L 102.34375 -73.078125 L 35.03125 -73.078125 L 35.03125 -133.40625 L 20.015625 -133.40625 Z M 20.015625 0 "/></g></g></g><g clip-path="url(#1b01034740)"><g clip-path="url(#4823f65189)"><g clip-path="url(#171bb7c814)"><path fill="#000000" d="M 28.03125 314.589844 L 157.828125 267.660156 L 163.046875 282.09375 L 33.25 329.023438 Z M 28.03125 314.589844 " fill-opacity="1" fill-rule="nonzero"/></g></g></g><g clip-path="url(#ea64f12e0d)"><g clip-path="url(#55a4505dc8)"><g clip-path="url(#87a1dd72d4)"><path fill="#000000" d="M 331.550781 170.671875 L 208.570312 108.019531 L 215.535156 94.34375 L 338.519531 156.996094 Z M 331.550781 170.671875 " fill-opacity="1" fill-rule="nonzero"/></g></g></g><g clip-path="url(#a4ac78daf2)"><g clip-path="url(#74cf0e94f3)"><g clip-path="url(#3d0a84cbdc)"><path fill="#000000" d="M 338.515625 60.71875 L 208.71875 107.648438 L 203.5 93.214844 L 333.296875 46.285156 Z M 338.515625 60.71875 " fill-opacity="1" fill-rule="nonzero"/></g></g></g><g clip-path="url(#7bd5d87b00)"><g clip-path="url(#1282b0df1b)"><g clip-path="url(#8d2f9f0e8c)"><path fill="#000000" d="M 29.378906 353.273438 L 159.175781 306.34375 L 164.394531 320.777344 L 34.597656 367.707031 Z M 29.378906 353.273438 " fill-opacity="1" fill-rule="nonzero"/></g></g></g><g clip-path="url(#e461e69ec6)"><g clip-path="url(#ac388fa126)"><g clip-path="url(#09165958d2)"><path fill="#000000" d="M 336.097656 21.925781 L 206.300781 68.855469 L 201.082031 54.421875 L 330.878906 7.492188 Z M 336.097656 21.925781 " fill-opacity="1" fill-rule="nonzero"/></g></g></g></svg>