<svg xmlns="http://www.w3.org/2000/svg" xmlns:xlink="http://www.w3.org/1999/xlink" width="500" zoomAndPan="magnify" viewBox="0 0 375 374.999991" height="500" preserveAspectRatio="xMidYMid meet" version="1.0"><defs><g/><clipPath id="a6a13853c1"><path d="M 26 206 L 158 206 L 158 284 L 26 284 Z M 26 206 " clip-rule="nonzero"/></clipPath><clipPath id="10bae070e0"><path d="M 33.101562 206.335938 L 157.664062 269.789062 L 150.613281 283.636719 L 26.050781 220.179688 Z M 33.101562 206.335938 " clip-rule="nonzero"/></clipPath><clipPath id="03484c8268"><path d="M 33.101562 206.335938 L 157.617188 269.765625 L 150.5625 283.609375 L 26.050781 220.179688 Z M 33.101562 206.335938 " clip-rule="nonzero"/></clipPath><clipPath id="be88e97828"><path d="M 26 270 L 163 270 L 163 333 L 26 333 Z M 26 270 " clip-rule="nonzero"/></clipPath><clipPath id="7845130f11"><path d="M 26.050781 317.652344 L 157.515625 270.117188 L 162.796875 284.730469 L 31.332031 332.265625 Z M 26.050781 317.652344 " clip-rule="nonzero"/></clipPath><clipPath id="cdaf7ffe3a"><path d="M 26.050781 317.652344 L 157.464844 270.136719 L 162.746094 284.75 L 31.332031 332.265625 Z M 26.050781 317.652344 " clip-rule="nonzero"/></clipPath><clipPath id="e473aeeeba"><path d="M 208 94 L 341 94 L 341 172 L 208 172 Z M 208 94 " clip-rule="nonzero"/></clipPath><clipPath id="cadf6448f8"><path d="M 333.335938 171.953125 L 208.773438 108.5 L 215.828125 94.652344 L 340.386719 158.109375 Z M 333.335938 171.953125 " clip-rule="nonzero"/></clipPath><clipPath id="a6252b265c"><path d="M 333.335938 171.953125 L 208.820312 108.523438 L 215.875 94.675781 L 340.386719 158.109375 Z M 333.335938 171.953125 " clip-rule="nonzero"/></clipPath><clipPath id="b5bf1db76a"><path d="M 203 46 L 341 46 L 341 109 L 203 109 Z M 203 46 " clip-rule="nonzero"/></clipPath><clipPath id="4452a763b2"><path d="M 340.386719 60.636719 L 208.925781 108.171875 L 203.640625 93.558594 L 335.105469 46.023438 Z M 340.386719 60.636719 " clip-rule="nonzero"/></clipPath><clipPath id="3acf379a71"><path d="M 340.386719 60.636719 L 208.976562 108.152344 L 203.691406 93.539062 L 335.105469 46.023438 Z M 340.386719 60.636719 " clip-rule="nonzero"/></clipPath><clipPath id="3667ed76f2"><path d="M 27 309 L 165 309 L 165 372 L 27 372 Z M 27 309 " clip-rule="nonzero"/></clipPath><clipPath id="f22d6b62e9"><path d="M 27.417969 356.8125 L 158.882812 309.28125 L 164.164062 323.894531 L 32.699219 371.425781 Z M 27.417969 356.8125 " clip-rule="nonzero"/></clipPath><clipPath id="2a3700284e"><path d="M 27.417969 356.8125 L 158.828125 309.296875 L 164.113281 323.910156 L 32.699219 371.425781 Z M 27.417969 356.8125 " clip-rule="nonzero"/></clipPath><clipPath id="b377537a8b"><path d="M 201 6 L 338 6 L 338 69 L 201 69 Z M 201 6 " clip-rule="nonzero"/></clipPath><clipPath id="3d649a8ee5"><path d="M 337.941406 21.363281 L 206.476562 68.898438 L 201.191406 54.285156 L 332.65625 6.75 Z M 337.941406 21.363281 " clip-rule="nonzero"/></clipPath><clipPath id="b539baf284"><path d="M 337.941406 21.363281 L 206.527344 68.878906 L 201.246094 54.265625 L 332.65625 6.75 Z M 337.941406 21.363281 " clip-rule="nonzero"/></clipPath></defs><g clip-path="url(#a6a13853c1)"><g clip-path="url(#10bae070e0)"><g clip-path="url(#03484c8268)"><path fill="#ffffff" d="M 33.101562 206.335938 L 157.609375 269.761719 L 150.558594 283.609375 L 26.050781 220.179688 Z M 33.101562 206.335938 " fill-opacity="1" fill-rule="nonzero"/></g></g></g><g fill="#ffffff" fill-opacity="1"><g transform="translate(31.977988, 180.534337)"><g><path d="M 6.015625 0 L 22.5625 0 L 32.875 -29.34375 L 92.25 -29.34375 L 102.5625 0 L 118.8125 0 L 68.4375 -135.0625 L 56.78125 -135.0625 Z M 37.953125 -43.203125 L 62.703125 -112.796875 L 87.078125 -43.203125 Z M 37.953125 -43.203125 "/></g></g></g><g fill="#ffffff" fill-opacity="1"><g transform="translate(203.915938, 327.656232)"><g><path d="M 20.265625 0 L 35.46875 0 L 35.46875 -61.265625 L 103.625 -61.265625 L 103.625 0 L 118.8125 0 L 118.8125 -135.0625 L 103.625 -135.0625 L 103.625 -73.984375 L 35.46875 -73.984375 L 35.46875 -135.0625 L 20.265625 -135.0625 Z M 20.265625 0 "/></g></g></g><g clip-path="url(#be88e97828)"><g clip-path="url(#7845130f11)"><g clip-path="url(#cdaf7ffe3a)"><path fill="#ffffff" d="M 26.050781 317.652344 L 157.457031 270.136719 L 162.742188 284.75 L 31.332031 332.265625 Z M 26.050781 317.652344 " fill-opacity="1" fill-rule="nonzero"/></g></g></g><g clip-path="url(#e473aeeeba)"><g clip-path="url(#cadf6448f8)"><g clip-path="url(#a6252b265c)"><path fill="#ffffff" d="M 333.335938 171.953125 L 208.828125 108.527344 L 215.882812 94.679688 L 340.386719 158.109375 Z M 333.335938 171.953125 " fill-opacity="1" fill-rule="nonzero"/></g></g></g><g clip-path="url(#b5bf1db76a)"><g clip-path="url(#4452a763b2)"><g clip-path="url(#3acf379a71)"><path fill="#ffffff" d="M 340.386719 60.636719 L 208.980469 108.148438 L 203.699219 93.535156 L 335.105469 46.023438 Z M 340.386719 60.636719 " fill-opacity="1" fill-rule="nonzero"/></g></g></g><g clip-path="url(#3667ed76f2)"><g clip-path="url(#f22d6b62e9)"><g clip-path="url(#2a3700284e)"><path fill="#ffffff" d="M 27.417969 356.8125 L 158.824219 309.300781 L 164.109375 323.914062 L 32.699219 371.425781 Z M 27.417969 356.8125 " fill-opacity="1" fill-rule="nonzero"/></g></g></g><g clip-path="url(#b377537a8b)"><g clip-path="url(#3d649a8ee5)"><g clip-path="url(#b539baf284)"><path fill="#ffffff" d="M 337.941406 21.363281 L 206.535156 68.875 L 201.25 54.261719 L 332.65625 6.75 Z M 337.941406 21.363281 " fill-opacity="1" fill-rule="nonzero"/></g></g></g></svg>